<svg xmlns="http://www.w3.org/2000/svg" viewBox="0 0 1200 400" width="1200" height="400">
  <defs>
    <linearGradient id="bg" x1="0%" y1="0%" x2="100%" y2="100%">
      <stop offset="0%" style="stop-color:#0a0a0a"/>
      <stop offset="50%" style="stop-color:#111111"/>
      <stop offset="100%" style="stop-color:#0d0d0d"/>
    </linearGradient>
    <radialGradient id="glow1" cx="18%" cy="55%" r="30%">
      <stop offset="0%" style="stop-color:#9B59B6;stop-opacity:0.15"/>
      <stop offset="100%" style="stop-color:#9B59B6;stop-opacity:0"/>
    </radialGradient>
    <radialGradient id="glow2" cx="30%" cy="30%" r="20%">
      <stop offset="0%" style="stop-color:#9B59B6;stop-opacity:0.08"/>
      <stop offset="100%" style="stop-color:#9B59B6;stop-opacity:0"/>
    </radialGradient>
  </defs>
  <rect width="1200" height="400" fill="url(#bg)"/>
  <rect width="1200" height="400" fill="url(#glow1)"/>
  <rect width="1200" height="400" fill="url(#glow2)"/>

  <circle cx="137" cy="225" r="1.6" fill="white" opacity="0.3"/>
  <circle cx="78" cy="300" r="3.5" fill="white" opacity="0.4"/>
  <circle cx="499" cy="154" r="2.1" fill="white" opacity="0.6"/>
  <circle cx="54" cy="271" r="2.3" fill="white" opacity="0.8"/>
  <circle cx="197" cy="25" r="3.2" fill="white" opacity="0.7"/>
  <circle cx="127" cy="207" r="2.6" fill="white" opacity="0.3"/>
  <circle cx="221" cy="26" r="2.1" fill="white" opacity="0.4"/>
  <circle cx="108" cy="153" r="3.4" fill="white" opacity="0.5"/>
  <circle cx="453" cy="161" r="2.2" fill="white" opacity="0.6"/>
  <circle cx="426" cy="277" r="2.4" fill="white" opacity="0.8"/>
  <circle cx="407" cy="82" r="2.7" fill="white" opacity="0.5"/>
  <circle cx="91" cy="342" r="2.0" fill="white" opacity="0.4"/>
  <circle cx="90" cy="335" r="1.9" fill="white" opacity="0.5"/>
  <circle cx="114" cy="375" r="1.9" fill="white" opacity="0.7"/>
  <circle cx="58" cy="42" r="2.9" fill="white" opacity="0.5"/>
  <circle cx="475" cy="144" r="3.2" fill="white" opacity="0.6"/>
  <circle cx="285" cy="216" r="2.7" fill="white" opacity="0.7"/>
  <circle cx="209" cy="277" r="3.3" fill="white" opacity="0.4"/>
  <circle cx="140" cy="322" r="2.1" fill="white" opacity="0.7"/>
  <circle cx="42" cy="300" r="3.3" fill="white" opacity="0.5"/>
  <circle cx="361" cy="338" r="1.7" fill="white" opacity="0.7"/>
  <circle cx="222" cy="178" r="3.2" fill="white" opacity="0.5"/>
  <circle cx="123" cy="58" r="3.1" fill="white" opacity="0.3"/>
  <circle cx="196" cy="269" r="2.5" fill="white" opacity="0.3"/>
  <circle cx="110" cy="293" r="1.5" fill="white" opacity="0.7"/>
  <circle cx="434" cy="28" r="2.9" fill="white" opacity="0.3"/>
  <circle cx="376" cy="265" r="1.8" fill="white" opacity="0.8"/>
  <circle cx="350" cy="154" r="3.0" fill="white" opacity="0.4"/>
  <circle cx="109" cy="229" r="3.0" fill="white" opacity="0.7"/>
  <circle cx="460" cy="80" r="2.6" fill="white" opacity="0.6"/>
  <circle cx="112" cy="196" r="1.9" fill="white" opacity="0.8"/>
  <circle cx="65" cy="149" r="1.9" fill="white" opacity="0.7"/>
  <circle cx="186" cy="53" r="3.2" fill="white" opacity="0.8"/>
  <circle cx="419" cy="115" r="1.9" fill="white" opacity="0.5"/>
  <circle cx="376" cy="127" r="2.0" fill="white" opacity="0.7"/>
  <circle cx="490" cy="198" r="3.0" fill="white" opacity="0.3"/>
  <circle cx="383" cy="234" r="2.2" fill="white" opacity="0.4"/>
  <circle cx="309" cy="375" r="2.7" fill="white" opacity="0.8"/>
  <circle cx="371" cy="151" r="2.0" fill="white" opacity="0.8"/>
  <circle cx="111" cy="234" r="2.3" fill="white" opacity="0.7"/>
  <circle cx="392" cy="116" r="3.4" fill="white" opacity="0.7"/>
  <circle cx="389" cy="333" r="2.7" fill="white" opacity="0.6"/>
  <circle cx="50" cy="310" r="3.0" fill="white" opacity="0.4"/>
  <circle cx="333" cy="42" r="2.0" fill="white" opacity="0.7"/>
  <circle cx="280" cy="208" r="3.0" fill="white" opacity="0.6"/>
  <circle cx="356" cy="145" r="1.6" fill="white" opacity="0.6"/>
  <circle cx="96" cy="244" r="1.7" fill="white" opacity="0.7"/>
  <circle cx="173" cy="296" r="2.5" fill="white" opacity="0.7"/>
  <circle cx="133" cy="184" r="1.8" fill="white" opacity="0.4"/>
  <circle cx="354" cy="228" r="2.9" fill="white" opacity="0.5"/>
  <circle cx="41" cy="215" r="1.8" fill="white" opacity="0.6"/>
  <circle cx="385" cy="52" r="3.0" fill="white" opacity="0.8"/>
  <circle cx="167" cy="281" r="3.0" fill="white" opacity="0.3"/>
  <circle cx="84" cy="373" r="3.1" fill="white" opacity="0.4"/>
  <circle cx="226" cy="168" r="2.9" fill="white" opacity="0.6"/>

  <line x1="391" y1="72" x2="443" y2="121" stroke="white" stroke-width="0.5" opacity="0.12"/>
  <line x1="236" y1="93" x2="279" y2="133" stroke="white" stroke-width="0.5" opacity="0.12"/>
  <line x1="259" y1="319" x2="326" y2="332" stroke="white" stroke-width="0.5" opacity="0.12"/>
  <line x1="456" y1="128" x2="537" y2="93" stroke="white" stroke-width="0.5" opacity="0.12"/>
  <line x1="83" y1="288" x2="147" y2="332" stroke="white" stroke-width="0.5" opacity="0.12"/>
  <line x1="305" y1="341" x2="359" y2="361" stroke="white" stroke-width="0.5" opacity="0.12"/>
  <line x1="399" y1="353" x2="472" y2="338" stroke="white" stroke-width="0.5" opacity="0.12"/>
  <line x1="58" y1="261" x2="120" y2="229" stroke="white" stroke-width="0.5" opacity="0.12"/>
  <line x1="157" y1="81" x2="207" y2="111" stroke="white" stroke-width="0.5" opacity="0.12"/>
  <line x1="234" y1="269" x2="278" y2="249" stroke="white" stroke-width="0.5" opacity="0.12"/>
  <line x1="322" y1="201" x2="365" y2="186" stroke="white" stroke-width="0.5" opacity="0.12"/>
  <line x1="417" y1="160" x2="463" y2="123" stroke="white" stroke-width="0.5" opacity="0.12"/>
  <line x1="123" y1="204" x2="189" y2="228" stroke="white" stroke-width="0.5" opacity="0.12"/>
  <line x1="463" y1="272" x2="538" y2="322" stroke="white" stroke-width="0.5" opacity="0.12"/>

  <line x1="533" y1="50" x2="533" y2="350" stroke="white" stroke-width="0.5" opacity="0.12"/>

  <text x="560" y="120" font-family="'SF Pro Display','Helvetica Neue',Arial,sans-serif" font-size="44" font-weight="800" fill="white" letter-spacing="3">AGENT MEMORY SYSTEM</text>
  <text x="560" y="185" font-family="'Noto Sans SC','PingFang SC','Microsoft YaHei',sans-serif" font-size="22" font-weight="500" fill="white" opacity="0.9" letter-spacing="3">Agent 记忆系统</text>
  <text x="560" y="225" font-family="'Noto Sans SC','PingFang SC','Microsoft YaHei',sans-serif" font-size="14" font-weight="300" fill="white" opacity="0.5" letter-spacing="1.5">短期记忆 · 长期记忆 · 向量检索 · 会话持久化 · 记忆压缩</text>
  <text x="560" y="275" font-family="'SF Mono','Fira Code','Consolas',monospace" font-size="12" fill="white" opacity="0.4" letter-spacing="1.5">FastAPI · ChromaDB · Python</text>
  <line x1="560" y1="315" x2="1150" y2="315" stroke="white" stroke-width="0.5" opacity="0.1"/>
  <text x="560" y="345" font-family="'SF Mono','Fira Code','Consolas',monospace" font-size="10" fill="white" opacity="0.3" letter-spacing="1">MEMORY · RAG · VECTOR SEARCH · AI AGENT</text>
</svg>